<svg version="1.2" baseProfile="tiny-ps" xmlns="http://www.w3.org/2000/svg" viewBox="0 0 800 566" width="800" height="566">
	<title>SF Logo 2-ai</title>
	<style>
		tspan { white-space:pre }
		.s0 { fill: #996136 } 
	</style>
	<g id="Layer 1">
		<g id="&lt;Group&gt;">
			<path id="&lt;Compound Path&gt;" fill-rule="evenodd" class="s0" d="m642.85 231.26c0 44.9-18.95 85.38-49.28 113.87l-132.36 133.99l0 0c-15.87 15.24-37.43 24.6-61.17 24.6c-23.75 0-45.31-9.37-61.18-24.62l-0.01 0.01l-132.34-134.01c-30.32-28.49-49.26-68.96-49.26-113.85c0-86.26 69.93-156.19 156.19-156.19c32.04 0 61.82 9.65 86.61 26.19l0 0c24.79-16.55 54.57-26.19 86.61-26.19c86.26 0 156.19 69.93 156.19 156.19zm-242.81-89.31l-47.97 73.43c-3.36 5.14-3.36 11.77-0.01 16.92l47.99 73.73h0l47.99-73.73c3.35-5.14 3.34-11.78-0.01-16.92l-47.97-73.43h0zm-124.44 227.74c27.72-24.29 62.62-40.59 101.09-45.34l0 0l0 0c0 0 0 0 0 0l-53.3-81.58l-0.01 0.01c-3.66-6.16-5.76-13.35-5.76-21.04c0-7.69 2.1-14.89 5.77-21.06c0 0 35.2-53.86 50.93-77.94l0 0c-18-10.12-38.77-15.9-60.89-15.9c-68.71 0-124.41 55.7-124.41 124.41c0 36.12 15.39 68.64 39.97 91.37l46.57 47.1l0.04-0.04zm225.83 23.36l-0.03-0.03c-27.28-23.29-62.68-37.35-101.36-37.35c-38.69 0-74.09 14.07-101.37 37.36l-0.03 0.03l62.78 63.49l0.02-0.02c10.09 9.47 23.67 15.27 38.6 15.27c14.92 0 28.49-5.79 38.58-15.26l0 0l62.8-63.49zm109.63-161.79c0-68.71-55.7-124.41-124.41-124.41c-22.12 0-42.89 5.77-60.89 15.9l0 0c15.73 24.07 50.93 77.93 50.93 77.93c3.66 6.16 5.77 13.37 5.77 21.06c0 7.68-2.1 14.88-5.76 21.04l-0.01-0.01l-53.3 81.58c0 0 0 0 0 0l0 0l0 0c38.46 4.74 73.35 21.04 101.07 45.32l0.05 0.05l46.56-47.08c24.59-22.73 39.99-55.26 39.99-91.38z" />
		</g>
	</g>
</svg>